# xmcd
#
# Track frame offsets:
#	182
#	13762
#	28607
#	46572
#	60677
#	73702
#	103097
#	117342
#	129720
#	144052
#	173270
#	187985
#	199097
#	214372
#	237790
#	258860
#
# Disc length: 3711
#
# Revision: 1
# Processed by: cddbd v1.5.1PL0 Copyright (c) Steve Scherf et al.
# Submitted via: CDex 1.51
# Normalized: r0:DSETVAR1,TDELIM( - )
#
DISCID=d70e7d10
DTITLE=Various Artist - 16 All-time Jazz Sessions vol 7
DYEAR=1988
DGENRE=Jazz
TTITLE0=Thelonious Monk - Thelonious
TTITLE1=Benny Goodman - Down south Camp Meetin'
TTITLE2=Gene Krupa - Who's Rythm
TTITLE3=Count Basie - Every Thub
TTITLE4=Harry James - I'm in the Market for You
TTITLE5=Dave Brubeck - The Duke
TTITLE6=Ella Fitzgerald and Louis Armstrong - I've got my Love to keep me Warm
TTITLE7=Lena Horne - Love
TTITLE8=Modern Jazz Quartet - La Ronde
TTITLE9=Lionel Hampton - Panama
TTITLE10=Django Reinhart - Nuages
TTITLE11=Charlie Parker - The Hymn
TTITLE12=Duke Ellington - You don't love Me no more
TTITLE13=Miles Davis - Oleo
TTITLE14=George Shearing - No Moon at all
TTITLE15=Louis Armstrong - Back Home in Indiana
EXTD=YEAR: 1988
EXTT0=
EXTT1=
EXTT2=
EXTT3=
EXTT4=
EXTT5=
EXTT6=
EXTT7=
EXTT8=
EXTT9=
EXTT10=
EXTT11=
EXTT12=
EXTT13=
EXTT14=
EXTT15=
PLAYORDER=
